<svg width="40" height="38" viewBox="0 0 40 38" fill="none" xmlns="http://www.w3.org/2000/svg">
<path d="M20 0C9 0 0 8.55 0 19C0 29.45 9 38 20 38C31 38 40 29.45 40 19C40 8.55 31 0 20 0ZM24.1429 19.95L18.1429 25.65C17.8571 25.9214 17.4286 26.0571 17.1429 26.0571C16.8571 26.0571 16.4286 25.9214 16.1429 25.65C15.5714 25.1071 15.5714 24.2929 16.1429 23.75L21.1429 19L16.1429 14.25C15.5714 13.7071 15.5714 12.8929 16.1429 12.35C16.7143 11.8071 17.5714 11.8071 18.1429 12.35L24.1429 18.05C24.7143 18.5929 24.7143 19.4071 24.1429 19.95Z" fill="#E2E1FF"/>
</svg>
