<svg width="20" height="20" viewBox="0 0 20 20" fill="none" xmlns="http://www.w3.org/2000/svg">
<path d="M10 20C4.5 20 0 15.5 0 10C0 4.5 4.5 0 10 0C15.5 0 20 4.5 20 10C20 15.5 15.5 20 10 20ZM12.0714 9.5L9.07143 6.5C8.92857 6.35714 8.71429 6.28571 8.57143 6.28571C8.42857 6.28571 8.21429 6.35714 8.07143 6.5C7.78571 6.78571 7.78571 7.21429 8.07143 7.5L10.5714 10L8.07143 12.5C7.78571 12.7857 7.78571 13.2143 8.07143 13.5C8.35714 13.7857 8.78571 13.7857 9.07143 13.5L12.0714 10.5C12.3571 10.2143 12.3571 9.78571 12.0714 9.5Z" fill="black"/>
</svg>
