<?xml version="1.0" encoding="utf-8"?><!-- Uploaded to: SVG Repo, www.svgrepo.com, Generator: SVG Repo Mixer Tools -->
<svg width="800px" height="800px" viewBox="0 0 400 400" fill="none" xmlns="http://www.w3.org/2000/svg">
<path d="M185.355 118.53C166 173 254 170 238.78 118.53" stroke="#000000" stroke-opacity="0.9" stroke-width="16" stroke-linecap="round" stroke-linejoin="round"/>
<path opacity="0.496303" d="M240.314 107.071C207.057 107.071 188.365 107.071 184.239 107.071C178.051 107.071 181.844 92.4752 180.458 89.7239C179.072 86.9725 167.519 66.1115 174.27 54.9445C181.021 43.7775 196.1 48.1571 196.1 51.5508C196.1 54.9445 203.711 46.8346 212.818 46.8346C221.925 46.8346 229.841 54.9445 229.841 54.9445C229.841 54.9445 248.871 45.7787 252.615 54.9445C255.111 61.055 252.131 70.1018 243.677 82.085V107.071" stroke="#000000" stroke-opacity="0.9" stroke-width="16" stroke-linecap="round" stroke-linejoin="round"/>
<path fill-rule="evenodd" clip-rule="evenodd" d="M187.117 201H238.349C236.195 229.664 234.943 252.119 246.286 278.613C225.993 278.613 216.274 278.613 213.13 278.613C209.986 278.613 199.943 279.62 183 281.635C185.428 247.055 187.117 235.682 187.117 201Z" stroke="#000000" stroke-opacity="0.9" stroke-width="16" stroke-linecap="round" stroke-linejoin="round"/>
<path d="M224.957 281.635C226.618 307.879 227.449 321.001 227.449 321.001C227.449 321.001 225.857 332.056 222.673 354.165C227.191 354.165 231.707 354.165 236.223 354.165" stroke="#000000" stroke-opacity="0.9" stroke-width="16" stroke-linecap="round" stroke-linejoin="round"/>
<path d="M200.5 281.635L194.501 317.9L197.5 354.165C192.506 352.2 188.168 352.2 184.486 354.165" stroke="#000000" stroke-opacity="0.9" stroke-width="16" stroke-linecap="round" stroke-linejoin="round"/>
<path d="M307.668 197.923C303.523 200.752 300.951 203.588 299.954 206.43C278.099 222.953 265.833 228.5 263.156 223.074C260.479 217.648 251.322 202.747 237.686 178.372L232.001 197.923" stroke="#000000" stroke-opacity="0.9" stroke-width="16" stroke-linecap="round" stroke-linejoin="round"/>
<path d="M121.664 185.735C140.079 206.268 149.873 215.115 151.046 212.276C152.218 209.437 164.186 198.545 186.95 179.602V200" stroke="#000000" stroke-opacity="0.9" stroke-width="16" stroke-linecap="round" stroke-linejoin="round"/>
<path d="M112.633 158.219C115.16 142.556 120.724 137.335 129.324 142.556C142.224 150.387 130.837 178.462 124.467 184.1C118.097 189.737 94.7129 195.507 83.4501 184.1C72.1873 172.692 71.793 153.155 83.4501 142.556C95.1073 131.957 112.633 148.005 112.633 154.91" stroke="#000000" stroke-opacity="0.9" stroke-width="16" stroke-linecap="round" stroke-linejoin="round"/>
<path d="M314.802 169.051L303.346 199.862" stroke="#000000" stroke-opacity="0.9" stroke-width="16" stroke-linecap="round" stroke-linejoin="round"/>
<path fill-rule="evenodd" clip-rule="evenodd" d="M313.598 169.559C310.991 161.079 313.899 147.743 317.4 143.785C320.901 139.827 324.018 140.764 325.63 148.406C327.241 156.047 324.785 164.597 322.299 169.559C319.812 174.522 316.206 178.04 313.598 169.559Z" stroke="#000000" stroke-opacity="0.9" stroke-width="16" stroke-linecap="round" stroke-linejoin="round"/>
</svg>