<svg width="58" height="68" viewBox="0 0 58 68" fill="none" xmlns="http://www.w3.org/2000/svg">
<g filter="url(#filter0_i_114_2)">
<ellipse cx="9" cy="55.5" rx="9" ry="10.5" fill="white"/>
</g>
<g filter="url(#filter1_d_114_2)">
<path d="M46.8383 17.9304L40.0442 9.15126C35.3997 3.14984 33.0775 0.149113 30.5833 0.859439C28.0893 1.56979 26.9583 5.55393 24.6967 13.5222L23.1659 18.9154C22.563 21.0397 22.2615 22.1018 21.7191 22.9234C21.4757 23.2921 21.1988 23.6214 20.8944 23.9044C20.2159 24.535 19.3718 24.8353 17.6836 25.4362C13.8786 26.7902 11.9761 27.4673 11.2591 29.0743C10.9492 29.7689 10.7879 30.5576 10.7918 31.3596C10.8009 33.2142 12.1963 35.0173 14.987 38.6235L18.2288 42.8134L7.97154 56.067C7.28878 56.9492 7.28878 58.3799 7.97154 59.262C8.6543 60.1442 9.76129 60.1442 10.444 59.262L20.7017 46.0078L24.0612 50.3489C26.8697 53.9779 28.274 55.7925 29.7193 55.7952C30.3285 55.7963 30.9271 55.5919 31.4562 55.2023C32.7118 54.2772 33.2391 51.8032 34.2937 46.8551C34.7576 44.6798 34.9893 43.592 35.476 42.7164C35.6891 42.3333 35.9362 41.9836 36.2125 41.6747C36.8434 40.9695 37.6609 40.5731 39.2958 39.7802L43.5216 37.7304C49.6261 34.7697 52.6784 33.2893 53.2165 30.0784C53.7543 26.8671 51.4489 23.8882 46.8383 17.9304Z" fill="#6366F1"/>
<path d="M30.7202 1.34032L30.5833 0.859439L30.7202 1.34032ZM30.7202 1.34032C31.6941 1.06298 32.7145 1.46275 34.1614 2.84943C35.6009 4.22894 37.3157 6.44262 39.6488 9.45728L46.4429 18.2365C48.7572 21.227 50.4602 23.4294 51.5244 25.2833C52.5814 27.1245 52.9654 28.551 52.7234 29.9958M30.7202 1.34032C29.7122 1.62742 28.8844 2.59769 28.0136 4.66333C27.1513 6.70897 26.3124 9.66088 25.1777 13.6588L23.6469 19.0519L23.6168 19.1582C23.0427 21.1813 22.7217 22.3123 22.1364 23.1989M52.7234 29.9958L20.8944 23.9044M52.7234 29.9958C52.4833 31.4281 51.6924 32.4977 50.1653 33.5918C48.6148 34.7026 46.3721 35.7922 43.3034 37.2805L43.3034 37.2805L39.0776 39.3303L39.0775 39.3304L38.9833 39.376C37.4386 40.125 36.537 40.5621 35.84 41.3413C35.5373 41.6795 35.2691 42.0598 35.0391 42.4733L35.039 42.4734C34.516 43.4142 34.2699 44.5688 33.8279 46.6421L33.8047 46.7508L33.8047 46.7509C33.2753 49.2349 32.885 51.0634 32.4729 52.3889C32.056 53.7295 31.6484 54.4397 31.1596 54.7998M52.7234 29.9958L31.1596 54.7998M22.1364 23.1989L21.7191 22.9234L22.1364 23.1989C22.1364 23.1989 22.1364 23.1989 22.1364 23.1989ZM22.1364 23.1989C21.8724 23.5987 21.5701 23.9589 21.2348 24.2706M21.2348 24.2706C21.2348 24.2706 21.2348 24.2706 21.2348 24.2706L20.8944 23.9044M21.2348 24.2706C20.4804 24.9718 19.5444 25.3048 17.9563 25.8698L17.8513 25.9072L17.8513 25.9072C15.9351 26.5891 14.5468 27.0843 13.5434 27.6043C12.553 28.1175 12.0094 28.6198 11.7158 29.278L11.7158 29.278C11.4363 29.9043 11.2883 30.6223 11.2918 31.3572C11.2957 32.1512 11.5936 32.9721 12.2719 34.0723C12.9535 35.1777 13.9803 36.5056 15.3825 38.3175L15.3825 38.3175L18.6243 42.5074L18.861 42.8134L18.6242 43.1194L8.36695 56.3731C7.82365 57.075 7.82365 58.254 8.36695 58.956C8.62603 59.2908 8.93425 59.4237 9.20779 59.4237C9.48133 59.4237 9.78956 59.2908 10.0486 58.956L20.3062 45.7018L20.7017 45.1909L21.0971 45.7018L24.4567 50.0429C25.8688 51.8676 26.9016 53.2009 27.7599 54.0833C28.6307 54.9785 29.2163 55.2942 29.7203 55.2952C30.2137 55.2961 30.7094 55.1312 31.1596 54.7998M21.2348 24.2706L20.8944 23.9044M20.8944 23.9044L31.1596 54.7998M31.1596 54.7998L31.4546 55.2002L31.1597 54.7997C31.1597 54.7997 31.1597 54.7997 31.1596 54.7998Z" stroke="black"/>
</g>
<defs>
<filter id="filter0_i_114_2" x="0" y="45" width="18" height="25" filterUnits="userSpaceOnUse" color-interpolation-filters="sRGB">
<feFlood flood-opacity="0" result="BackgroundImageFix"/>
<feBlend mode="normal" in="SourceGraphic" in2="BackgroundImageFix" result="shape"/>
<feColorMatrix in="SourceAlpha" type="matrix" values="0 0 0 0 0 0 0 0 0 0 0 0 0 0 0 0 0 0 127 0" result="hardAlpha"/>
<feOffset dy="4"/>
<feGaussianBlur stdDeviation="2"/>
<feComposite in2="hardAlpha" operator="arithmetic" k2="-1" k3="1"/>
<feColorMatrix type="matrix" values="0 0 0 0 0 0 0 0 0 0 0 0 0 0 0 0 0 0 0.25 0"/>
<feBlend mode="normal" in2="shape" result="effect1_innerShadow_114_2"/>
</filter>
<filter id="filter1_d_114_2" x="3.45947" y="0.756836" width="53.8337" height="67.1667" filterUnits="userSpaceOnUse" color-interpolation-filters="sRGB">
<feFlood flood-opacity="0" result="BackgroundImageFix"/>
<feColorMatrix in="SourceAlpha" type="matrix" values="0 0 0 0 0 0 0 0 0 0 0 0 0 0 0 0 0 0 127 0" result="hardAlpha"/>
<feOffset dy="4"/>
<feGaussianBlur stdDeviation="2"/>
<feComposite in2="hardAlpha" operator="out"/>
<feColorMatrix type="matrix" values="0 0 0 0 0 0 0 0 0 0 0 0 0 0 0 0 0 0 0.25 0"/>
<feBlend mode="normal" in2="BackgroundImageFix" result="effect1_dropShadow_114_2"/>
<feBlend mode="normal" in="SourceGraphic" in2="effect1_dropShadow_114_2" result="shape"/>
</filter>
</defs>
</svg>
